<svg width="512" height="512" xmlns="http://www.w3.org/2000/svg">

 <g>
  <title>background</title>
  <rect fill="none" id="canvas_background" height="402" width="582" y="-1" x="-1"/>
 </g>
 <g>
  <title>Layer 1</title>
  <g id="svg_1">
   <path id="svg_2" d="m512,449c0,35.2 -28.8,64 -64,64l-384,0c-35.2,0 -64,-28.8 -64,-64l0,-384c0,-35.2 28.8,-64 64,-64l384,0c35.2,0 64,28.8 64,64l0,384z" fill="#7574FF"/>
  </g>
  <g id="svg_5"/>
  <g id="svg_6"/>
  <g id="svg_7"/>
  <g id="svg_8"/>
  <g id="svg_9"/>
  <g id="svg_10"/>
  <g id="svg_11"/>
  <g id="svg_12"/>
  <g id="svg_13"/>
  <g id="svg_14"/>
  <g id="svg_15"/>
  <g id="svg_16"/>
  <g id="svg_17"/>
  <g id="svg_18"/>
  <g id="svg_19"/>
  <g stroke="null" id="svg_21">
   <text font-weight="bold" transform="matrix(14.681902930103995,0,0,15.255127367577046,-5125.276376797452,-2741.1045735591083) " xml:space="preserve" text-anchor="start" font-family="Helvetica, Arial, sans-serif" font-size="24" id="svg_22" y="204.78778" x="365.571139" stroke-width="0" fill="#ffffff">H</text>
  </g>
  <text stroke="null" transform="matrix(1.0749413967132568,0,0,1,-7.257605887949467,0) " xml:space="preserve" text-anchor="start" font-family="Helvetica, Arial, sans-serif" font-size="24" id="svg_23" y="230" x="83.5" stroke-width="0" fill="#000000"/>
  <text font-weight="bold" stroke="null" transform="matrix(13.131084042662566,0,0,14.982698404320939,-856.4503712023904,-2562.842900364167) " xml:space="preserve" text-anchor="start" font-family="Helvetica, Arial, sans-serif" font-size="24" id="svg_26" y="196.184472" x="66.044828" stroke-opacity="null" stroke-width="0" fill="#ffffff">B</text>
 </g>
</svg>