<svg width="512" height="512" xmlns="http://www.w3.org/2000/svg">
 <g>
  <title>background</title>
  <rect x="-1" y="-1" width="514" height="514" id="canvas_background" fill="none"/>
 </g>
 <defs>
  <filter id="svg_4_blur">
   <feGaussianBlur stdDeviation="0" in="SourceGraphic"/>
  </filter>
 </defs>
 <g>
  <title>Layer 1</title>
  <g id="svg_1">
   <path fill="#7574FF" d="m512,449c0,35.2 -28.8,64 -64,64l-384,0c-35.2,0 -64,-28.8 -64,-64l0,-384c0,-35.2 28.8,-64 64,-64l384,0c35.2,0 64,28.8 64,64l0,384z" id="svg_2"/>
  </g>
  <g id="svg_5"/>
  <g id="svg_6"/>
  <g id="svg_7"/>
  <g id="svg_8"/>
  <g id="svg_9"/>
  <g id="svg_10"/>
  <g id="svg_11"/>
  <g id="svg_12"/>
  <g id="svg_13"/>
  <g id="svg_14"/>
  <g id="svg_15"/>
  <g id="svg_16"/>
  <g id="svg_17"/>
  <g id="svg_18"/>
  <g id="svg_19"/>
  <text fill="#000000" stroke-width="0" x="83.5" y="230" id="svg_23" font-size="24" font-family="Helvetica, Arial, sans-serif" text-anchor="start" xml:space="preserve" transform="matrix(1.0749413967132568,0,0,1,-7.257605887949467,0) " stroke="null"/>
  <text filter="url(#svg_4_blur)" font-weight="bold" stroke="#000" transform="matrix(15.038904576955483,0,0,16.535451801451,-2072.306411016029,-1329.3327953326295) " xml:space="preserve" text-anchor="start" font-family="Arvo, sans-serif" font-size="24" id="svg_3" y="103.513488" x="137.932693" stroke-width="0" fill="#ffffff">R</text>
  <text filter="url(#svg_4_blur)" stroke="#000" transform="matrix(19.13497864390358,0,0,16.44847134644371,-6646.329513211355,-2984.3982600614745) " font-weight="bold" xml:space="preserve" text-anchor="start" font-family="Arvo, sans-serif" font-size="24" id="svg_4" y="204.657505" x="359.260268" stroke-width="0" fill="#ffffff">F</text>
 </g>
</svg>